{"asset":{"generator":"glTF-Transform v4.0.2","version":"2.0"},"accessors":[{"type":"VEC3","componentType":5126,"count":45969,"max":[0.8612279891967773,0.5315110087394714,0],"min":[-0.8607190251350403,-0.5203830003738403,-1.8991140127182007],"bufferView":0,"byteOffset":0},{"type":"VEC3","componentType":5126,"count":45969,"bufferView":0,"byteOffset":12},{"type":"VEC2","componentType":5126,"count":45969,"bufferView":0,"byteOffset":24},{"type":"VEC4","componentType":5126,"count":45969,"bufferView":0,"byteOffset":32},{"type":"SCALAR","componentType":5123,"count":179994,"bufferView":1,"byteOffset":0}],"bufferViews":[{"buffer":0,"byteOffset":0,"byteLength":2206512,"byteStride":48,"target":34962},{"buffer":0,"byteOffset":2206512,"byteLength":359988,"target":34963}],"samplers":[{"magFilter":9729,"minFilter":9987,"wrapS":10497,"wrapT":10497}],"textures":[{"source":0,"sampler":0}],"images":[{"name":"shaded","mimeType":"image/png","uri":"emissive.png"}],"buffers":[{"uri":"base_basic_shaded.bin","byteLength":2566500}],"materials":[{"name":"CustomMaterial","doubleSided":true,"pbrMetallicRoughness":{"baseColorFactor":[0,0,0,1],"metallicFactor":0},"emissiveFactor":[1,1,1],"emissiveTexture":{"index":0}}],"meshes":[{"name":"model","primitives":[{"attributes":{"POSITION":0,"NORMAL":1,"TEXCOORD_0":2,"TANGENT":3},"mode":4,"material":0,"indices":4}]}],"nodes":[{"name":"model","rotation":[0.7071068286895752,0,0,0.7071068286895752],"mesh":0}],"scenes":[{"name":"Scene","nodes":[0]}],"scene":0}